<?xml version="1.0" encoding="UTF-8"?>
<svg id="Layer_1" data-name="Layer 1" xmlns="http://www.w3.org/2000/svg" xmlns:xlink="http://www.w3.org/1999/xlink" viewBox="0 0 160 160">
  <defs>
    <style>
      .cls-1 {
        fill: url(#linear-gradient-2);
      }

      .cls-2 {
        fill: url(#linear-gradient-3);
      }

      .cls-3 {
        fill: url(#linear-gradient);
      }
    </style>
    <linearGradient id="linear-gradient" x1="78.461987322" y1="56.1263290671" x2="87.0793790063" y2="189.8890582813" gradientUnits="userSpaceOnUse">
      <stop offset="0" stop-color="#030509"/>
      <stop offset=".5331125828" stop-color="#3e0c0c"/>
      <stop offset="1" stop-color="#801a1c"/>
    </linearGradient>
    <linearGradient id="linear-gradient-2" x1="113.2565948462" y1="187.1469074224" x2="67.034372624" y2="50.9246852002" gradientUnits="userSpaceOnUse">
      <stop offset="0" stop-color="#030509"/>
      <stop offset=".0977297731" stop-color="#3e0c0c"/>
      <stop offset="1" stop-color="#fff"/>
    </linearGradient>
    <linearGradient id="linear-gradient-3" x1="115.8436743018" y1="186.2690729579" x2="69.6214520796" y2="50.0468507356" gradientUnits="userSpaceOnUse">
      <stop offset="0" stop-color="#3e0c0c"/>
      <stop offset=".0764987184" stop-color="#542727"/>
      <stop offset=".2680436536" stop-color="#876868"/>
      <stop offset=".4507516726" stop-color="#b29e9e"/>
      <stop offset=".6196023548" stop-color="#d3c8c8"/>
      <stop offset=".7716637876" stop-color="#ebe6e6"/>
      <stop offset=".9015179383" stop-color="#f9f8f8"/>
      <stop offset=".9939199806" stop-color="#fff"/>
    </linearGradient>
  </defs>
  <rect class="cls-3" x="15.682142114" y="15.682142114" width="128.635715772" height="128.635715772" rx="20.9015553475" ry="20.9015553475"/>
  <g>
    <path class="cls-1" d="M58.8478307614,49.1333406026l-.0000043485.0000054129c5.0636761696,4.0702291848,11.0814606977,8.9073467142,16.1687527004,12.9965806563l.0000043523-.0000054176c2.4037041059-2.9920490742,1.9268617945-7.3660540774-1.0652437483-9.7696879227-1.7766113177-1.4271966788-3.5555948318-2.8562979273-5.3416129963-4.2910517597-2.9895237078-2.4015604556-7.36026496-1.9253079908-9.7618959597,1.0641590308Z"/>
    <path class="cls-2" d="M95.9079555678,83.2959821879c-6.688312825-3.8740130706-16.2372078726-2.4586448111-20.8686860785,3.729288123-.000279883-9.3915753657-.0005852099-13.0200879364-.0008650929-21.5587326247h-6.9497998655c-.001933737,4.9011072969-.0034094837,3.5844437224-.0034349276,3.6360439674-.0054958841,16.118715594-.0060047622,31.5017460377-.00605565,32.8047540003.1441906255,1.3256275966.4553187302,3.1587593783,1.1795795658,5.243302413,0,0,.8637952261,2.4862005633,2.1049744926,4.4863461558,1.8211222572,2.9346494383,6.9898485764,8.2880221964,14.8549675812,8.5577021753,5.3794018758.1844174438,10.7916518365-2.1746399122,14.3182029021-6.2410343697,2.6135473218-3.013678216,4.1816299159-6.8714835172,4.660967695-10.8316242157.9289061861-7.6732464961-2.6015377973-15.9520579979-9.2898506223-19.8260456245ZM94.9704238969,110.085847271c-2.2724971816,2.5255877326-5.075219958,3.7873765645-8.408193773,3.7873765645-3.3839888501,0-6.2116212122-1.2368792462-8.48409295-3.7117827144-2.2228306736-2.5247226397-3.332973815-5.7572184628-3.332973815-9.6960626104,0-3.8881344394,1.1101431414-7.0944230374,3.332973815-9.620290653,2.2724717377-2.5245954201,5.1001040998-3.7873765645,8.48409295-3.7873765645,3.332973815,0,6.1356965914,1.2627811443,8.408193773,3.7873765645,2.2724717377,2.5258676155,3.4087203285,5.7321562136,3.4087203285,9.620290653,0,3.9388441476-1.1362485908,7.1467357119-3.4087203285,9.6204687603Z"/>
  </g>
</svg>