<?xml version="1.0" encoding="UTF-8"?>
<svg id="Layer_1" data-name="Layer 1" xmlns="http://www.w3.org/2000/svg" xmlns:xlink="http://www.w3.org/1999/xlink" viewBox="0 0 220 60">
  <defs>
    <style>
      .cls-1 {
        fill: url(#White_Black-10);
      }

      .cls-2 {
        fill: url(#White_Black-7);
      }

      .cls-3 {
        fill: url(#White_Black-8);
      }

      .cls-4 {
        fill: url(#White_Black-3);
      }

      .cls-5 {
        fill: url(#White_Black-9);
      }

      .cls-6 {
        fill: url(#White_Black-6);
      }

      .cls-7 {
        fill: url(#White_Black-2);
      }

      .cls-8 {
        fill: url(#White_Black-4);
      }

      .cls-9 {
        fill: url(#White_Black-5);
      }

      .cls-10 {
        fill: url(#White_Black);
      }
    </style>
    <linearGradient id="White_Black" data-name="White, Black" x1="22.0971803396" y1="10.063899828" x2="20.8068646138" y2="306.8365167775" gradientUnits="userSpaceOnUse">
      <stop offset="0" stop-color="#fff"/>
      <stop offset="1" stop-color="#000"/>
    </linearGradient>
    <linearGradient id="White_Black-2" data-name="White, Black" x1="106.1276549693" y1="12.4777766237" x2="104.9114817735" y2="292.1976116694" xlink:href="#White_Black"/>
    <linearGradient id="White_Black-3" data-name="White, Black" x1="93.0499957513" y1="12.6499652974" x2="91.7037890837" y2="322.2774988527" xlink:href="#White_Black"/>
    <linearGradient id="White_Black-4" data-name="White, Black" x1="130.9664220372" y1="12.5857311978" x2="129.7502145883" y2="292.3134444469" xlink:href="#White_Black"/>
    <linearGradient id="White_Black-5" data-name="White, Black" x1="155.6176629894" y1="12.6929116078" x2="154.4014556941" y2="292.420589535" xlink:href="#White_Black"/>
    <linearGradient id="White_Black-6" data-name="White, Black" x1="181.6637747425" y1="12.8061555719" x2="180.4475674472" y2="292.533833499" xlink:href="#White_Black"/>
    <linearGradient id="White_Black-7" data-name="White, Black" x1="203.7878164434" y1="12.9023470576" x2="202.5716091481" y2="292.6300249847" xlink:href="#White_Black"/>
    <linearGradient id="White_Black-8" data-name="White, Black" x1="46.5020642299" y1="-5.9707418009" x2="45.0774143044" y2="321.6987410619" xlink:href="#White_Black"/>
    <linearGradient id="White_Black-9" data-name="White, Black" x1="68.3465827183" y1="-26.0570988332" x2="66.1151804994" y2="487.1654115303" xlink:href="#White_Black"/>
    <linearGradient id="White_Black-10" data-name="White, Black" x1="44.3797504401" y1="7.1376739933" x2="43.0335445892" y2="316.7650197146" xlink:href="#White_Black"/>
  </defs>
  <path class="cls-10" d="M31.2331591999,46.806237764c-3.3258600512,2.3682507506-6.8781784042,3.1811619893-10.6561924565,2.4365845634-3.7785802269-.7436530592-6.9062560446-2.8553920336-9.3844140031-6.3355866702-2.4556380733-3.4485812933-3.4540754982-7.0655591013-2.9933422181-10.8514649348.4605079657-3.7846579384,2.3224714868-6.8400482753,5.5869535851-9.1645880328,3.3562139447-2.3898809328,6.8011208801-3.2069287128,10.3332995923-2.4503114098,3.5322364852.7567212942,6.6910634626,3.0910015664,9.4756027841,7.001465821l.2826598009.4946864267-17.7840076591,12.6635010962c1.6402772627,2.1736484383,3.6514104698,3.4338376434,6.0327525647,3.7794352662,1.1636159878.169667519,2.2782405373.1300815124,3.3439083122-.1185500371,1.4109649784-.3291901127,2.4075594471-.9465053448,3.184593701-1.4669469404,3.0715436461-2.0572937723,5.9852401132-4.7510602778,7.2295648738-5.9346656968-.2413406067.6724074911-.4904343396,1.58570496-.5735349114,2.6867875364-.1155920635,1.5314908495.1378461932,2.7913796354.3737214814,3.6114547166-.3435755704.3313161563-.8362168357.792991135-1.448297841,1.3214978306-.3463833345.2990788655-1.7124009792,1.4075101577-3.0032676062,2.3267004647ZM13.917338865,36.859802101l12.9800409242-9.2427344355c-1.2418000505-1.4826626151-2.8066912446-2.328457861-4.696342231-2.5382167455-1.8892950786-.20907002-3.8041668463.3767941308-5.7442593955,1.7582813169-1.6015589045,1.1404265768-2.6283950591,2.6144077247-3.0816939958,4.421979946-.4527007788,1.8082231998-.2723394119,3.6746348778.5422546981,5.6006899181Z"/>
  <path class="cls-7" d="M112.5022997739,23.2647810812c-4.6772881829-2.7091898538-11.3550975796-1.7193941348-14.5939934413,2.6079753367-.000198337-6.5677532237-.0003966741-5.9390039673-.0005950111-11.910295115h-4.8601758003c-.0006785214,1.7137363101-.0023278504,7.0653599495-.0038101587,12.1024315012-.0003549189,1.20641107-.0028289123,8.149751992-.0028289123,10.2152755571v4.3071495334c.3964548414.767188502.9919774263,1.7717968653,1.8618001209,2.8368875834,1.5746498595,1.9281490762,3.1966083195,3.0151612553,3.7593009068,3.3708317405,1.1446656215.7235334783,3.6861041047,2.286136973,7.0643160704,2.2739235876.1897772195-.0006889602.3329974313-.0064094176.4063403765-.0090608705,1.6597886385-.0600648031,6.2795799608-.519016686,9.6067149224-4.3554602579,1.8277487848-2.1075292598,2.9243228964-4.8053930254,3.2595333514-7.5748251417.6496268383-5.3660813649-1.8192933642-11.1556644785-6.4966024246-13.8648334547ZM111.8466584903,41.999591239c-1.5892132913,1.7662057517-3.5492264099,2.6486057823-5.8800571494,2.6486057823-2.366506811,0-4.3439398169-.8649801433-5.9331353146-2.5957411397-1.5544802781-1.7656007709-2.3308307395-4.0261647741-2.3308307395-6.7806955706,0-2.7190682476.7763504614-4.9613048924,2.3308307395-6.7277063731,1.5891954977-1.7655118032,3.5666285036-2.6486057822,5.9331353146-2.6486057822,2.3308307395,0,4.2908438581.8830939791,5.8800571494,2.6486057822,1.5891954977,1.7664014808,2.3838021434,4.0086381255,2.3838021434,6.7277063731,0,2.7545307965-.7946066456,4.997888435-2.3838021434,6.727830928Z"/>
  <path class="cls-4" d="M86.7484521956,2.7788487138l-.0000029627.0000036879c3.6524454005,2.9357790428,7.9930914955,6.4247008834,11.6625715021,9.3741871594l.0000029653-.0000036911c1.6376870562-2.0385372676,1.2158465863-5.0965196633-.9423402042-6.8302502853-1.281458499-1.0294307473-2.5646280273-2.0602352787-3.8528716331-3.0951169584-2.1563245422-1.732235079-5.2310850264-1.4855979569-6.8673596675.5511800876Z"/>
  <path class="cls-8" d="M141.25018723,22.2923450715v16.3174691433c0,3.3545472266-.8559182251,5.9412796237-2.5699259437,7.7601345587-2.664334369,2.8300606142-6.438458359,2.7335644306-7.3363614013,2.7272802785-.159442093,0-.3125791562-.0042172715-.4552356733-.0126100595-.1426773947.0083927879-.2958353355.0126100595-.4552147957.0126100595-.8979030423.0062841522-4.6720270322.1027803357-7.3384491595-2.7272802785-1.7140285962-1.8188549349-2.5678799407-4.4055873321-2.5678799407-7.7601345587v-16.3174691433h4.8734121872v15.9985849574c-.0335502741.2916389415-.2873799148,2.8951151594,1.7370774466,4.8230763373,1.2860381673,1.2230922579,2.7944017043,1.5147311994,3.751054262,1.5608289003.9566734353-.0460977008,2.4629492141-.3377366424,3.7489247486-1.5608289003,2.0245199942-1.9279611779,1.7727154789-4.5314373957,1.7391652048-4.8230763373v-15.9985849574h4.8734330648Z"/>
  <path class="cls-9" d="M156.2547309436,49.0980420287c-3.8497612488,0-7.0455635873-1.3062789329-9.5882620873-3.9200481505-2.5080395899-2.6834290666-3.761061801-5.9861866357-3.761061801-9.906220535,0-3.9904205593,1.2530222112-7.2921520423,3.761061801-9.9061279022,2.5426985-2.6130566577,5.7385008385-3.9200410249,9.5882620873-3.9200410249,3.0544019657,0,5.2399654785,1.1401741108,6.9396771964,1.9865526777,2.2447629836,1.1177783553,3.8718221011,2.4286105455,4.9057464155,3.3802912043v5.5692037483c-1.3063216865-1.1143010633-4.4053869024-3.6460332676-7.8707363737-5.344811532-1.3046970501-.6395865785-2.6388655748-1.1413925881-4.292431918-1.1413925881-2.2249253179,0-4.1503189854.9005188629-5.7741573325,2.7016634727-1.5893789537,1.8010377258-2.383883165,4.0258561597-2.383883165,6.6746619442,0,2.6487986588.7945042113,4.8737239767,2.383883165,6.6747617025,1.6238383471,1.8010377258,3.5492320145,2.7016563471,5.7741573325,2.7016563471,2.0588133702,0,3.6024744851-.7390670564,4.5720403956-1.2290802009,3.8376477316-1.9395451057,6.7482836259-5.6603615275,7.5911278961-6.7827216425v6.3648053018c-.8812369939,1.1301341428-2.413896185,2.788845168-4.7734098038,4.1104013837-1.0452397645.5854391569-3.5550465028,1.9864457938-7.0720138082,1.9864457938Z"/>
  <path class="cls-6" d="M175.0258297602,48.250275965h-4.8735207555v-26.8510540665h4.8735207555v12.2833490538l11.2303225886-11.3894065328h6.2510873252v.2119411982l-11.9305787657,11.399138004,12.4071135428,14.1341935819v.2118387616h-5.8798573098l-11.981797035-12.4579220659"/>
  <path class="cls-2" d="M214.1321268902,48.250275965h-20.9775689727v-4.2377995976l14.7797486475-17.2694687157h-14.3558662512v-4.4498432323h20.3418478148v4.2379020342l-14.7795437744,17.2693662791h14.991382536v4.4498432323Z"/>
  <path class="cls-3" d="M43.3280707469,40.3949685653c-.046218338-.3295136411-.0627876122-.6808654469-.0377141638-1.0528768499.1743124619-2.5603803819,2.1618396529-3.9079453551,2.3874775793-4.0552663076,2.1961567689-1.8237062918,4.3923135378-3.6473894744,6.5884703068-5.4710957662.5980421851-.4966160423,1.1961074795-.9932320846,1.7941496646-1.4898481269.0193423745-1.9544117518.0386847489-3.9088003944.0580040142-5.8632121462l-11.5238493167,9.5694144557c-2.3690595715,1.9672835589-3.6951561268,4.0872956159-3.9744997619,6.3644500223-.2506651564,2.041810629.4009440825,3.7732882272,1.0997191355,4.9947233559l3.6082425421-2.9962886372Z"/>
  <path class="cls-5" d="M85.7990345043,38.4508372856c-3.2257886831,2.586343981-6.0741944317,3.9077652576-7.286409203,4.2276906786-.5930883457.156521803-2.173141764.4363296277-3.2746608505.3706703446-.0476875927-.0028429793-.0860452495-.0055957052-.1144186339-.0076715314-2.4447365375-.1784759207-4.579610898-1.3130502821-6.4039236185-3.4027302976l17.151648799-14.1570214064-.3230842868-.4821331826c-3.1129269188-3.7714376327-6.4918754692-5.9141865945-10.135807738-6.4268930859-3.6438871422-.5126162381-7.0849525332.567445124-10.3218198102,3.2391687363-3.148419033,2.5987086845-4.8187370431,5.8382835607-5.01217245,9.7172354491-.1340036022,2.6862092687.4378864973,5.2392046516,1.7126242492,7.659685612l-7.2797417398,6.0450990208c-.172090499.1816122233-1.73541321,1.7704540577-4.1474780492,1.4364491203-.3618255202-.050361347-.6962140342-.1377039879-1.0039552583-.2495955291l-3.3398011771,2.7733488396c1.0302189715.8930339402,2.5498590804,1.8475303845,4.5035950476,2.0101668493,2.1644323196.18125121,4.3452230517-.6416559082,6.5436131792-2.4672096117l7.2002737002-5.9791238512c2.6976940024,3.0947183135,5.9077786095,4.8760704584,9.6342700938,5.3370166764.0000451267,0,2.1743376204.2606966862,4.573270603-.1868469153,3.1123402723-.5806446706,7.5074282778-3.0671233639,11.5816883292-7.4479287831v-5.9469259828c-1.4192333014,1.3125087622-2.8384778845,2.6250400877-4.2577111859,3.9375488499ZM65.2797526636,30.344284972c.3294922719-1.8695296288,1.2659606175-3.4416971642,2.8105557666-4.7166154228,1.8711090618-1.5444372058,3.7743031753-2.2786027569,5.7091536373-2.2031961163,1.9352566019.0760835404,3.5866665436.8220045851,4.9559897645,2.2384400339l-12.5185176881,10.332830714c-.9673801044-1.8979594215-1.2860194157-3.7813203701-.9571814803-5.6514592088Z"/>
  <path class="cls-1" d="M53.9919816658,39.5017760733c.0228087498-1.8284898898.0456406088-3.6570028887.0684724678-5.4854927785l-19.6672662795,16.5903266424,2.6750618481,3.1711678405c3.735292198-3.1509088718,7.4705843443-6.3017939635,11.2058533814-9.4527021643,1.9059518243-1.6077511073,3.8119036487-3.2155253237,5.7178785822-4.8232995401Z"/>
</svg>